<svg id="Group_248" data-name="Group 248" xmlns="http://www.w3.org/2000/svg" xmlns:xlink="http://www.w3.org/1999/xlink" width="80.949" height="20.533" viewBox="0 0 80.949 20.533">
  <defs>
    <clipPath id="clip-path">
      <rect id="Rectangle_175" data-name="Rectangle 175" width="80.949" height="20.533"/>
    </clipPath>
  </defs>
  <g id="Group_130" data-name="Group 130" clip-path="url(#clip-path)">
    <path id="Path_444" data-name="Path 444" d="M6237.113,340.205c0-.623.326-.867.731-.867.163,0,.379.081.488.081.678,0,.813-.461.867-1.734.054-1.6.135-3.846.135-6.122,0-1.463-.055-2.925-.135-4.2-.054-.867-.108-1.706-.786-1.706-.217,0-.434.081-.569.081-.514,0-.731-.379-.731-.867,0-.623.326-.867.731-.867,1.355,0,2.682.054,4.2.054,1.435,0,2.681-.054,3.982-.054a.74.74,0,0,1,.73.84c0,.488-.216.867-.73.867-.136,0-.353-.054-.542-.054-.379,0-.542.217-.6,1.111-.081.975-.136,2.411-.136,3.928,0,.677.108.813.408.813,1.515,0,4.36-2.194,4.36-3.9,0-1.95-1.518-1.679-1.518-2.871,0-.379.354-.731.95-.731.65,0,1.6.108,2.383.108.732,0,1.735-.108,2.385-.108.676,0,1.111.19,1.111.948,0,4.632-3.9,5.255-6.854,6.691a.487.487,0,0,0-.326.461.429.429,0,0,0,.488.433,25.643,25.643,0,0,1,2.548-.3,2.181,2.181,0,0,1,2.274,2.411c0,.461-.083,1.273-.083,1.923,0,1.029.191,1.381.787,1.381.352,0,.813-.352.813-1.192,0-1.056-.543-1.706-.543-2.3a.788.788,0,0,1,.867-.758c.84,0,.977.975.977,2.9,0,3.576-1.3,4.714-3.819,4.741-2.926,0-4.254-.894-4.254-3.332,0-.84.082-1.815.082-2.79a1.874,1.874,0,0,0-2.086-2c-.65,0-.949.217-.949.731,0,1.382.108,2.763.136,3.738.054,1.273.19,1.734.868,1.734.108,0,.379-.081.541-.081.515,0,.732.379.732.867a.792.792,0,0,1-.732.867c-.7,0-2.708-.054-4.063-.054-1.517,0-3.631.054-4.389.054-.514,0-.731-.379-.731-.867" transform="translate(-6237.113 -320.945)"/>
    <path id="Path_445" data-name="Path 445" d="M6558.2,276.013c1,0,1.95.163,3.142.163.974,0,1.868-.163,2.818-.163.459,0,.595.244.595.758,0,.542-.189,4.578-.189,6.853,0,.7,0,2.573.026,3.765.027,1.354.11,1.734.488,1.734.271,0,.488-.054.705-.054a.752.752,0,0,1,.785.84c0,.488-.217.867-.785.867-.732,0-2.845-.108-4.307-.108-1.111,0-2.06.108-3.061.108-.46,0-.732-.244-.732-.867,0-.569.272-.84.732-.84.134,0,.324.054.542.054.3,0,.324-.488.352-1.084.08-1.923.162-4.063.162-6.176,0-.975-.027-2.032-.083-2.9-.054-1.029-.244-1.246-.731-1.246-.217,0-.379.027-.459.027-.515,0-.651-.46-.651-.894S6557.686,276.013,6558.2,276.013Zm6.636-3.088c0,1.517-.785,2.059-3.035,2.086s-3.034-.569-3.034-2.086c0-1.625,1.41-2.275,3.034-2.275s3.035.623,3.035,2.275" transform="translate(-6539.167 -270.65)"/>
    <path id="Path_446" data-name="Path 446" d="M6715.961,374.723c-5.607,0-7.638-2.682-7.638-6.908,0-6.122,3.143-8.4,7.638-8.4s7.639,2.411,7.639,8.4c0,4.09-2.029,6.908-7.639,6.908m.055-13.707c-1.327,0-2.085.894-2.085,6.2,0,4.2.678,5.445,2.085,5.445,1.381,0,1.977-1.057,1.977-5.445,0-5.418-.731-6.2-1.977-6.2" transform="translate(-6681.29 -354.325)"/>
    <path id="Path_447" data-name="Path 447" d="M6989.277,369.3c0-1.436-1.192-1.869-4.362-2.871-2.545-.813-4.307-1.869-4.307-4.686,0-2.546,1.708-4.686,6.367-4.686,4.2,0,6.365,1.327,6.365,3.359,0,1.246-.841,1.977-2.438,1.977s-2.734-.46-2.734-1.517a1.1,1.1,0,0,1,.649-1.029c.245-.135.378-.271.378-.461,0-.46-.406-.758-1.923-.758-1.869,0-2.627.6-2.627,1.625,0,.948.623,1.842,4.44,2.79,3.848.948,4.742,2.736,4.742,4.93,0,3.034-2.329,4.659-6.8,4.659-5.391,0-6.908-1.653-6.908-3.576,0-1.3.921-2.059,2.683-2.059,1.543,0,2.627.65,2.627,1.571a1.11,1.11,0,0,1-.488,1.084c-.326.189-.433.3-.433.488,0,.406.568.677,2.058.677,1.762,0,2.709-.433,2.709-1.517" transform="translate(-6937.497 -352.101)"/>
    <path id="Path_448" data-name="Path 448" d="M7212.665,310.411a.752.752,0,0,1,.7-.84c.056,0,.218.027.406.027.434,0,.515-.3.544-.894.053-2.221.08-4.388.08-6.61,0-1.869-.026-3.738-.08-5.553-.029-1.138-.137-1.652-.706-1.652-.083,0-.38.054-.433.054-.515,0-.787-.19-.787-.786a.841.841,0,0,1,.895-.948c2.545,0,4.2-.812,5.364-.84.894.027,1.057.379,1.057,1,0,1.625-.271,4.767-.271,7.476,0,.785.188.948.731.948,1.029,0,3.763-1.869,3.763-2.763,0-.542-.431-.867-1.3-.867-.215,0-.377.054-.541.054-.405,0-.731-.325-.731-.894a.74.74,0,0,1,.731-.84c.895,0,2.058.108,3.117.108.947,0,2.545-.108,3.356-.108.6,0,.977.217.977.975,0,2.9-4.227,3.3-6.772,4.551-.406.19-.514.379-.514.7s.3.488.675.488c.542,0,1.33-.3,2.223-.3a1.966,1.966,0,0,1,2.167,2.113c0,.65-.054.813-.054,1.463,0,1.246.217,1.653.891,1.653.355,0,.815-.352.815-1.192,0-1.057-.542-1.707-.542-2.3a.788.788,0,0,1,.868-.759c.839,0,.974.975.974,2.9,0,3.576-1.3,4.713-3.82,4.741-2.709,0-3.954-.894-3.954-3.332,0-.813.053-1.815.053-2.817,0-1.083-.785-1.6-2-1.6-.813,0-1.11.352-1.11.894,0,1.6,0,3.061.081,4.036.054.677.108.948.542.948.162,0,.73-.135.977-.135.622,0,.784.325.784.867a.779.779,0,0,1-.759.867c-.759,0-3.034-.081-4.551-.081-1.381,0-1.9.081-3.143.081a.767.767,0,0,1-.7-.84" transform="translate(-7156.442 -291.124)"/>
    <path id="Path_449" data-name="Path 449" d="M7541.754,517.735c0,1.788-1.11,2.871-3.225,2.871-2.329,0-3.249-1.083-3.249-2.871a3.243,3.243,0,1,1,6.474,0" transform="translate(-7460.807 -500.317)"/>
  </g>
</svg>
